<svg width="42" height="49" viewBox="0 0 42 49" fill="none" xmlns="http://www.w3.org/2000/svg">
<path fill-rule="evenodd" clip-rule="evenodd" d="M23.1373 36.5546C24.4121 34.8993 25.9124 33.5035 27.5175 32.3425C32.0664 29.0526 37.4668 27.6245 41.0974 27.2995L41.454 31.2836C38.372 31.5594 33.7035 32.8051 29.8617 35.5837C26.0964 38.3069 23.1379 42.4742 23.1379 48.819H23.1378H19.1379H19.1378C19.1378 42.4742 16.1793 38.3069 12.4141 35.5837C8.57224 32.8051 3.90376 31.5594 0.821777 31.2836L1.17839 27.2995C4.80898 27.6245 10.2094 29.0526 14.7582 32.3425C16.3629 33.5031 17.8628 34.8985 19.1373 36.5532V0H23.1373V36.5546Z" fill="#F2AB33"/>
</svg>
