<?xml version="1.0" encoding="UTF-8"?>
<svg viewBox="0 0 32 32" xmlns="http://www.w3.org/2000/svg">
  <path d="m12.877 12.679c0-1.5095-1.0269-1.5095-1.0269-1.5095h-4.225v3.2389h3.9631c0.6848-3e-4 1.2888-0.2193 1.2888-1.7294z"/>
  <path d="m11.851 16.645h-4.2253v3.8793h4.0302c0.6063-0.0173 1.7252-0.2072 1.7252-1.8856 0-2.014-1.5301-1.9937-1.5301-1.9937z"/>
  <path d="m22.668 14.408c-2.2421 0-2.5547 2.2375-2.5547 2.2375h4.7681c3e-4 0 0.0288-2.2375-2.2134-2.2375z"/>
  <path d="m16 0c-8.8366 0-16 7.1637-16 16 0 8.8363 7.1634 16 16 16 8.8366 0 16-7.1637 16-16 0-8.8363-7.1634-16-16-16zm3.4884 9.4438h5.9888v1.7874h-5.9888v-1.7874zm-3.0268 9.375c0 4.4303-4.6106 4.2846-4.6106 4.2846h-7.5533v-14.515h7.5529c2.2955 0 4.1075 1.2672 4.1075 3.8645 0 2.5977-2.215 2.7623-2.215 2.7623 2.9198 0 2.7185 3.6033 2.7185 3.6033zm6.2347 2.2893c2.4127 0 2.3272-1.5615 2.3272-1.5615h2.5544c0 4.1441-4.9667 3.8603-4.9667 3.8603-5.9604 0-5.5771-5.5489-5.5771-5.5489s-0.0045-5.5763 5.5764-5.5763c5.8752 0 5.0526 6.3001 5.0526 6.3001h-7.5213c0 2.6972 2.5545 2.5263 2.5545 2.5263z"/>
</svg>
