<?xml version="1.0" encoding="UTF-8"?>
<svg fill="none" viewBox="0 0 20 20" xmlns="http://www.w3.org/2000/svg">
  <mask id="a" x="0" y="0" width="20" height="20" mask-type="alpha" maskUnits="userSpaceOnUse">
    <path d="m0 4.8828e-4h19.499v19.499h-19.499v-19.499z" clip-rule="evenodd" fill="#fff" fill-rule="evenodd"/>
  </mask>
  <g mask="url(#a)">
    <path d="m8.8049 11.818 3.657 5.933c0.16 0.26 0.41 0.257 0.511 0.243s0.344-0.076 0.432-0.371l4.573-15.445c0.08-0.273-0.067-0.459-0.133-0.525-0.064-0.066-0.247-0.207-0.512-0.132l-15.456 4.526c-0.29301 0.086-0.35701 0.332-0.37101 0.433-0.014 0.103-0.018 0.358 0.24101 0.521l6.001 3.753 5.302-5.358c0.291-0.294 0.766-0.297 1.061-6e-3s0.297 0.767 6e-3 1.061l-5.312 5.367zm4.09 7.682c-0.696 0-1.334-0.354-1.71-0.962l-3.877-6.291-6.356-3.975c-0.685-0.429-1.043-1.193-0.932-1.996 0.11-0.803 0.661-1.441 1.435-1.668l15.456-4.526c0.711-0.208 1.473-0.011 1.997 0.511 0.524 0.527 0.719 1.297 0.507 2.011l-4.573 15.444c-0.229 0.777-0.869 1.326-1.67 1.433-0.094 0.012-0.185 0.019-0.277 0.019z" clip-rule="evenodd" fill="#130F26" fill-rule="evenodd"/>
  </g>
</svg>
