<svg fill="none" viewBox="0 0 20 20" xmlns="http://www.w3.org/2000/svg">
  <path d="m9.9951 15.427c-0.414 0-0.75-0.336-0.75-0.75v-2.537c0-0.414 0.336-0.75 0.75-0.75 0.41398 0 0.74998 0.336 0.74998 0.75v2.537c0 0.414-0.336 0.75-0.74998 0.75z" clip-rule="evenodd" fill="#130F26" fill-rule="evenodd"/>
  <mask id="b" x="0" y="2" width="20" height="11" mask-type="alpha" maskUnits="userSpaceOnUse">
    <path d="m2.4414e-4 2.5796h19.99v10.311h-19.99v-10.311z" clip-rule="evenodd" fill="#fff" fill-rule="evenodd"/>
  </mask>
  <g mask="url(#b)">
    <path d="m1.5002 9.3926c2.376 1.291 5.372 1.998 8.49 1.998 3.124 0 6.123-0.707 8.5-1.998v-3.002c0-1.275-1.031-2.311-2.3-2.311h-12.38c-1.274 0-2.31 1.032-2.31 2.301v3.012zm8.49 3.498c-3.545 0-6.962-0.858-9.619-2.414-0.23-0.134-0.371-0.38-0.371-0.64701v-3.449c0-2.096 1.709-3.801 3.81-3.801h12.38c2.096 0 3.8 1.709 3.8 3.811v3.439c0 0.26701-0.142 0.51301-0.371 0.64701-2.657 1.556-6.077 2.414-9.629 2.414z" clip-rule="evenodd" fill="#130F26" fill-rule="evenodd"/>
  </g>
  <mask id="a" x="5" y="0" width="10" height="5" mask-type="alpha" maskUnits="userSpaceOnUse">
    <path d="m5.7451 0h8.5v4.0759h-8.5v-4.0759z" clip-rule="evenodd" fill="#fff" fill-rule="evenodd"/>
  </mask>
  <g mask="url(#a)">
    <path d="m13.495 4.076c-0.414 0-0.75-0.336-0.75-0.75v-0.366c0-0.805-0.655-1.46-1.46-1.46h-2.58c-0.805 0-1.46 0.655-1.46 1.46v0.366c0 0.414-0.336 0.75-0.75 0.75s-0.75-0.336-0.75-0.75v-0.366c0-1.632 1.328-2.96 2.96-2.96h2.58c1.632 0 2.96 1.328 2.96 2.96v0.366c0 0.414-0.336 0.75-0.75 0.75z" clip-rule="evenodd" fill="#130F26" fill-rule="evenodd"/>
  </g>
  <path d="m15.795 19.74h-11.6c-2.075 0-3.822-1.621-3.979-3.691l-0.19-2.509c-0.031-0.413 0.279-0.774 0.692-0.805 0.415-0.015 0.773 0.278 0.805 0.692l0.189 2.508c0.098 1.292 1.188 2.305 2.483 2.305h11.6c1.295 0 2.386-1.013 2.483-2.305l0.19-2.508c0.032-0.414 0.399-0.708 0.805-0.692 0.413 0.031 0.722 0.392 0.691 0.805l-0.19 2.509c-0.157 2.07-1.904 3.691-3.979 3.691z" clip-rule="evenodd" fill="#130F26" fill-rule="evenodd"/>
</svg>
